<svg xmlns="http://www.w3.org/2000/svg" viewBox="0 0 100 100" width="100" height="100">
  <!-- Background circle -->
  <circle cx="50" cy="50" r="45" fill="#FFD700" stroke="#FFA500" stroke-width="2"/>
  
  <!-- Smiley face -->
  <circle cx="35" cy="40" r="5" fill="#000"/>
  <circle cx="65" cy="40" r="5" fill="#000"/>
  
  <!-- Smile -->
  <path d="M 30 60 Q 50 75 70 60" stroke="#000" stroke-width="3" fill="none"/>
  
  <!-- Star decorations -->
  <polygon points="20,25 23,35 33,35 25,42 28,52 20,45 12,52 15,42 7,35 17,35" fill="#FF69B4"/>
  <polygon points="80,25 83,35 93,35 85,42 88,52 80,45 72,52 75,42 67,35 77,35" fill="#9370DB"/>
  
  <!-- Balloons -->
  <ellipse cx="15" cy="80" rx="8" ry="12" fill="#FF6B6B"/>
  <line x1="15" y1="68" x2="15" y2="75" stroke="#FF6B6B" stroke-width="2"/>
  
  <ellipse cx="85" cy="80" rx="8" ry="12" fill="#4ECDC4"/>
  <line x1="85" y1="68" x2="85" y2="75" stroke="#4ECDC4" stroke-width="2"/>
  
  <!-- Text -->
  <text x="50" y="95" font-family="Arial, sans-serif" font-size="12" font-weight="bold" text-anchor="middle" fill="#8B4513">
    Kids Care
  </text>
</svg>